<svg xmlns="http://www.w3.org/2000/svg" version="1.1" xmlns:xlink="http://www.w3.org/1999/xlink" xmlns:svgjs="http://svgjs.dev/svgjs" width="36" height="36"><svg width="36" height="36" viewBox="0 0 36 36" fill="none" xmlns="http://www.w3.org/2000/svg">
<mask id="SvgjsMask1123" fill="white">
<path d="M0 17.7734C0 7.95744 7.95744 0 17.7734 0H18.2266C28.0426 0 36 7.95744 36 17.7734V18.2266C36 28.0426 28.0426 36 18.2266 36H17.7734C7.95744 36 0 28.0426 0 18.2266V17.7734Z"></path>
</mask>
<path d="M0 17.7734C0 7.95744 7.95744 0 17.7734 0H18.2266C28.0426 0 36 7.95744 36 17.7734V18.2266C36 28.0426 28.0426 36 18.2266 36H17.7734C7.95744 36 0 28.0426 0 18.2266V17.7734Z" fill="white"></path>
<path d="M17.7734 2.66602H18.2266V-2.66602H17.7734V2.66602ZM33.334 17.7734V18.2266H38.666V17.7734H33.334ZM18.2266 33.334H17.7734V38.666H18.2266V33.334ZM2.66602 18.2266V17.7734H-2.66602V18.2266H2.66602ZM17.7734 33.334C9.42984 33.334 2.66602 26.5702 2.66602 18.2266H-2.66602C-2.66602 29.515 6.48504 38.666 17.7734 38.666V33.334ZM33.334 18.2266C33.334 26.5702 26.5702 33.334 18.2266 33.334V38.666C29.515 38.666 38.666 29.515 38.666 18.2266H33.334ZM18.2266 2.66602C26.5702 2.66602 33.334 9.42984 33.334 17.7734H38.666C38.666 6.48504 29.515 -2.66602 18.2266 -2.66602V2.66602ZM17.7734 -2.66602C6.48504 -2.66602 -2.66602 6.48504 -2.66602 17.7734H2.66602C2.66602 9.42984 9.42984 2.66602 17.7734 2.66602V-2.66602Z" fill="#373533" mask="url(#path-1-inside-1_103_632)"></path>
<path d="M22.9988 11.0017C22.774 11.0013 22.5501 11.0293 22.3323 11.085V11.0017C22.3329 10.3982 22.1287 9.81234 21.7531 9.33994C21.3775 8.86755 20.8528 8.53657 20.2646 8.40112C19.6765 8.26568 19.0598 8.33378 18.5155 8.59431C17.9711 8.85483 17.5312 9.29235 17.2677 9.83532C16.8643 9.68442 16.4302 9.63353 16.0028 9.68702C15.5753 9.7405 15.1672 9.89677 14.8133 10.1425C14.4595 10.3881 14.1704 10.7159 13.9709 11.0977C13.7714 11.4795 13.6674 11.9039 13.6678 12.3347V16.5695C13.2336 16.0742 12.6315 15.7572 11.9775 15.6795C11.3234 15.6018 10.6638 15.7689 10.1257 16.1487C9.58758 16.5285 9.2091 17.094 9.06319 17.7363C8.91729 18.3786 9.01429 19.0521 9.3355 19.6271C11.9865 25.2149 13.6136 27.6643 18.0001 27.6643C20.0322 27.6621 21.9805 26.8539 23.4174 25.4169C24.8544 23.98 25.6626 22.0317 25.6648 19.9995V13.6677C25.6648 12.9607 25.384 12.2825 24.884 11.7826C24.384 11.2826 23.7059 11.0017 22.9988 11.0017ZM23.6653 19.9995C23.6636 21.5015 23.0661 22.9415 22.0041 24.0035C20.942 25.0656 19.502 25.663 18.0001 25.6648C15.015 25.6648 13.8586 24.4984 11.1284 18.7381C11.1167 18.714 11.1042 18.6898 11.0909 18.6665C11.008 18.5138 10.988 18.3348 11.0351 18.1676C11.0823 18.0004 11.1928 17.8582 11.3433 17.7713C11.4937 17.6844 11.6721 17.6597 11.8405 17.7024C12.0089 17.7451 12.154 17.8519 12.2448 18L12.2623 18.0292L13.8186 20.5285C13.9334 20.7131 14.1052 20.8553 14.308 20.9334C14.5108 21.0116 14.7336 21.0215 14.9426 20.9617C15.1516 20.9019 15.3354 20.7756 15.4661 20.602C15.5969 20.4284 15.6675 20.2169 15.6673 19.9995V12.3347C15.6673 12.1579 15.7375 11.9884 15.8625 11.8634C15.9875 11.7384 16.157 11.6682 16.3338 11.6682C16.5106 11.6682 16.6801 11.7384 16.8051 11.8634C16.9301 11.9884 17.0003 12.1579 17.0003 12.3347V17.3335C17.0003 17.5986 17.1056 17.8529 17.2931 18.0404C17.4806 18.2279 17.7349 18.3332 18.0001 18.3332C18.2652 18.3332 18.5195 18.2279 18.707 18.0404C18.8945 17.8529 18.9998 17.5986 18.9998 17.3335V11.0017C18.9998 10.8249 19.07 10.6554 19.195 10.5304C19.32 10.4054 19.4895 10.3352 19.6663 10.3352C19.8431 10.3352 20.0126 10.4054 20.1376 10.5304C20.2626 10.6554 20.3328 10.8249 20.3328 11.0017V17.3335C20.3328 17.5986 20.4381 17.8529 20.6256 18.0404C20.8131 18.2279 21.0674 18.3332 21.3326 18.3332C21.5977 18.3332 21.852 18.2279 22.0395 18.0404C22.227 17.8529 22.3323 17.5986 22.3323 17.3335V13.6677C22.3323 13.491 22.4026 13.3214 22.5275 13.1964C22.6525 13.0714 22.8221 13.0012 22.9988 13.0012C23.1756 13.0012 23.3451 13.0714 23.4701 13.1964C23.5951 13.3214 23.6653 13.491 23.6653 13.6677V19.9995Z" fill="#373533"></path>
</svg><style>@media (prefers-color-scheme: light) { :root { filter: none; } }
@media (prefers-color-scheme: dark) { :root { filter: none; } }
</style></svg>